<svg width="1166" height="504" viewBox="0 0 1166 504" fill="none" xmlns="http://www.w3.org/2000/svg">
<g opacity="0.2">
<path d="M38.02 289C38.02 272.431 51.4515 259 68.02 259H124.871V366.871C124.871 383.44 111.44 396.871 94.871 396.871H68.02C51.4515 396.871 38.02 383.44 38.02 366.871V289Z" fill="#F18522"/>
<path d="M238 310.02C254.569 310.02 268 323.452 268 340.02L268 396.871L160.129 396.871C143.56 396.871 130.129 383.44 130.129 366.871L130.129 340.02C130.129 323.452 143.56 310.02 160.129 310.02L238 310.02Z" fill="#1D46F5"/>
<path d="M216.98 511.558C216.98 528.126 203.549 541.558 186.98 541.558L130.129 541.558L130.129 433.687C130.129 417.118 143.56 403.687 160.129 403.687L186.98 403.687C203.549 403.687 216.98 417.118 216.98 433.687L216.98 511.558Z" fill="#F18522"/>
<path d="M17 490.538C0.431454 490.538 -13 477.106 -13 460.538L-13 403.687L94.8711 403.687C111.44 403.687 124.871 417.118 124.871 433.687L124.871 460.538C124.871 477.106 111.44 490.538 94.8711 490.538L17 490.538Z" fill="#1D46F5"/>
</g>
<path d="M861.25 10C861.25 -6.56854 874.681 -20 891.25 -20H1028.5V215.5C1028.5 232.069 1015.07 245.5 998.5 245.5H891.25C874.681 245.5 861.25 232.069 861.25 215.5V10Z" fill="#F18522"/>
<path d="M1274.12 78.25C1290.69 78.25 1304.12 91.6815 1304.12 108.25L1304.12 245.5L1068.62 245.5C1052.06 245.5 1038.62 232.069 1038.62 215.5L1038.62 108.25C1038.62 91.6814 1052.06 78.25 1068.62 78.25L1274.12 78.25Z" fill="#1D46F5"/>
<path d="M1205.87 494.125C1205.87 510.694 1192.44 524.125 1175.88 524.125L1038.62 524.125L1038.62 288.625C1038.62 272.056 1052.06 258.625 1068.62 258.625L1175.87 258.625C1192.44 258.625 1205.87 272.056 1205.87 288.625L1205.87 494.125Z" fill="#F18522"/>
<path d="M793 425.875C776.431 425.875 763 412.444 763 395.875L763 258.625L998.5 258.625C1015.07 258.625 1028.5 272.056 1028.5 288.625L1028.5 395.875C1028.5 412.444 1015.07 425.875 998.5 425.875L793 425.875Z" fill="#1D46F5"/>
</svg>
